# xmcd CD database file
#
# Track frame offsets:
#	150
#	12825
#	30550
#	43312
#	61287
#	71137
#	82637
#	95625
#	108175
#	122537
#	132787
#	145537
#	155612
#	164125
#	172975
#	182412
#	199575
#	212532
#	230185
#	250982
#
# Disc length: 3552 seconds
#
# Revision: 3
# Processed by: cddbd v1.4PL0 Copyright (c) Steve Scherf et al.
# Submitted via: CDex 1.40Beta9
#
DISCID=0d0dde14
DTITLE=Johnny Cash - Timeless Inspiration CD 3 of 3
DYEAR=1997
DGENRE=Country
TTITLE0=(There'll Be) Peace In The Valley (for Me)
TTITLE1=Were You There (when They Crucified My Lord)
TTITLE2=He Turned The Water Into Wine
TTITLE3=Jesus Was A Carpenter
TTITLE4=The Great Speckled Bird
TTITLE5=I Saw A Man
TTITLE6=Supper-time
TTITLE7=Welcome Back Jesus
TTITLE8=The Reverend Mr. Black/ Lonesome Valley
TTITLE9=Keep On The Sunny Side
TTITLE10=Family Bible
TTITLE11=I'm Just An Old Chunk Of Coal
TTITLE12=Swing Low, Sweet Chariot
TTITLE13=He'll Be A Friend
TTITLE14=It Was Jesus
TTITLE15=These Hands
TTITLE16=Here Was A Man
TTITLE17=I'll Fly Away
TTITLE18=Can The Circle Be Unbroken
TTITLE19=I Saw The Light
EXTD=YEAR: 1997 ID3G: 2
EXTT0=
EXTT1=
EXTT2=
EXTT3=
EXTT4=
EXTT5=
EXTT6=
EXTT7=
EXTT8=
EXTT9=
EXTT10=
EXTT11=
EXTT12=
EXTT13=
EXTT14=
EXTT15=
EXTT16=
EXTT17=
EXTT18=
EXTT19=
PLAYORDER=
